<svg width="23" height="18" viewBox="0 0 23 18" fill="none" xmlns="http://www.w3.org/2000/svg">
<path d="M22.8983 4.5V6.75C22.8983 6.94891 22.8194 7.13968 22.6791 7.28033C22.5388 7.42098 22.3486 7.5 22.1502 7.5C21.9518 7.5 21.7615 7.42098 21.6212 7.28033C21.4809 7.13968 21.4021 6.94891 21.4021 6.75V4.5C21.4021 4.30109 21.4809 4.11032 21.6212 3.96967C21.7615 3.82902 21.9518 3.75 22.1502 3.75C22.3486 3.75 22.5388 3.82902 22.6791 3.96967C22.8194 4.11032 22.8983 4.30109 22.8983 4.5ZM1.2036 3.75C1.00519 3.75 0.814911 3.82902 0.674616 3.96967C0.534322 4.11032 0.455505 4.30109 0.455505 4.5V6.75C0.455505 6.94891 0.534322 7.13968 0.674616 7.28033C0.814911 7.42098 1.00519 7.5 1.2036 7.5C1.402 7.5 1.59228 7.42098 1.73258 7.28033C1.87287 7.13968 1.95169 6.94891 1.95169 6.75V4.5C1.95169 4.30109 1.87287 4.11032 1.73258 3.96967C1.59228 3.82902 1.402 3.75 1.2036 3.75ZM19.9059 3V16.5C19.9059 16.8978 19.7483 17.2794 19.4677 17.5607C19.1871 17.842 18.8065 18 18.4097 18H16.9135C16.5167 18 16.1361 17.842 15.8556 17.5607C15.575 17.2794 15.4173 16.8978 15.4173 16.5V15.75H7.93642V16.5C7.93642 16.8978 7.77879 17.2794 7.4982 17.5607C7.21761 17.842 6.83705 18 6.44024 18H4.94406C4.54724 18 4.16668 17.842 3.88609 17.5607C3.6055 17.2794 3.44787 16.8978 3.44787 16.5V3C3.44787 2.20435 3.76314 1.44129 4.32432 0.87868C4.88549 0.31607 5.64661 0 6.44024 0H16.9135C17.7071 0 18.4683 0.31607 19.0294 0.87868C19.5906 1.44129 19.9059 2.20435 19.9059 3ZM9.4326 10.875C9.4326 10.6525 9.36679 10.435 9.24349 10.25C9.12019 10.065 8.94493 9.92078 8.73989 9.83564C8.53485 9.75049 8.30922 9.72821 8.09155 9.77162C7.87388 9.81502 7.67393 9.92217 7.517 10.0795C7.36006 10.2368 7.25319 10.4373 7.20989 10.6555C7.16659 10.8738 7.18882 11.1 7.27375 11.3055C7.35868 11.5111 7.50251 11.6868 7.68704 11.8104C7.87158 11.934 8.08853 12 8.31047 12C8.60808 12 8.8935 11.8815 9.10394 11.6705C9.31438 11.4595 9.4326 11.1734 9.4326 10.875ZM16.1654 10.875C16.1654 10.6525 16.0996 10.435 15.9763 10.25C15.853 10.065 15.6778 9.92078 15.4727 9.83564C15.2677 9.75049 15.042 9.72821 14.8244 9.77162C14.6067 9.81502 14.4068 9.92217 14.2498 10.0795C14.0929 10.2368 13.986 10.4373 13.9427 10.6555C13.8994 10.8738 13.9216 11.1 14.0066 11.3055C14.0915 11.5111 14.2353 11.6868 14.4199 11.8104C14.6044 11.934 14.8214 12 15.0433 12C15.3409 12 15.6263 11.8815 15.8368 11.6705C16.0472 11.4595 16.1654 11.1734 16.1654 10.875ZM18.4097 3.75H4.94406V7.5H18.4097V3.75Z" fill="#CBCBCB"/>
</svg>
