<svg width="23" height="18" viewBox="0 0 23 18" fill="none" xmlns="http://www.w3.org/2000/svg">
<path d="M22.8982 4.5V6.75C22.8982 6.94891 22.8194 7.13968 22.6791 7.28033C22.5388 7.42098 22.3485 7.5 22.1501 7.5C21.9517 7.5 21.7614 7.42098 21.6211 7.28033C21.4808 7.13968 21.402 6.94891 21.402 6.75V4.5C21.402 4.30109 21.4808 4.11032 21.6211 3.96967C21.7614 3.82902 21.9517 3.75 22.1501 3.75C22.3485 3.75 22.5388 3.82902 22.6791 3.96967C22.8194 4.11032 22.8982 4.30109 22.8982 4.5ZM1.20354 3.75C1.00513 3.75 0.81485 3.82902 0.674555 3.96967C0.534261 4.11032 0.455444 4.30109 0.455444 4.5V6.75C0.455444 6.94891 0.534261 7.13968 0.674555 7.28033C0.81485 7.42098 1.00513 7.5 1.20354 7.5C1.40194 7.5 1.59222 7.42098 1.73252 7.28033C1.87281 7.13968 1.95163 6.94891 1.95163 6.75V4.5C1.95163 4.30109 1.87281 4.11032 1.73252 3.96967C1.59222 3.82902 1.40194 3.75 1.20354 3.75ZM19.9058 3V16.5C19.9058 16.8978 19.7482 17.2794 19.4676 17.5607C19.187 17.842 18.8065 18 18.4096 18H16.9135C16.5166 18 16.1361 17.842 15.8555 17.5607C15.5749 17.2794 15.4173 16.8978 15.4173 16.5V15.75H7.93636V16.5C7.93636 16.8978 7.77873 17.2794 7.49814 17.5607C7.21755 17.842 6.83699 18 6.44018 18H4.94399C4.54718 18 4.16662 17.842 3.88603 17.5607C3.60544 17.2794 3.44781 16.8978 3.44781 16.5V3C3.44781 2.20435 3.76308 1.44129 4.32425 0.87868C4.88543 0.31607 5.64655 0 6.44018 0H16.9135C17.7071 0 18.4682 0.31607 19.0294 0.87868C19.5906 1.44129 19.9058 2.20435 19.9058 3ZM9.43254 10.875C9.43254 10.6525 9.36673 10.435 9.24343 10.25C9.12013 10.065 8.94487 9.92078 8.73983 9.83564C8.53479 9.75049 8.30916 9.72821 8.09149 9.77162C7.87381 9.81502 7.67387 9.92217 7.51694 10.0795C7.36 10.2368 7.25313 10.4373 7.20983 10.6555C7.16653 10.8738 7.18875 11.1 7.27369 11.3055C7.35862 11.5111 7.50245 11.6868 7.68698 11.8104C7.87152 11.934 8.08847 12 8.31041 12C8.60802 12 8.89344 11.8815 9.10388 11.6705C9.31432 11.4595 9.43254 11.1734 9.43254 10.875ZM16.1654 10.875C16.1654 10.6525 16.0996 10.435 15.9763 10.25C15.853 10.065 15.6777 9.92078 15.4727 9.83564C15.2676 9.75049 15.042 9.72821 14.8243 9.77162C14.6066 9.81502 14.4067 9.92217 14.2498 10.0795C14.0928 10.2368 13.986 10.4373 13.9427 10.6555C13.8994 10.8738 13.9216 11.1 14.0065 11.3055C14.0914 11.5111 14.2353 11.6868 14.4198 11.8104C14.6043 11.934 14.8213 12 15.0432 12C15.3408 12 15.6263 11.8815 15.8367 11.6705C16.0471 11.4595 16.1654 11.1734 16.1654 10.875ZM18.4096 3.75H4.94399V7.5H18.4096V3.75Z" fill="#3C6EAB"/>
</svg>
