<svg width="23" height="18" viewBox="0 0 23 18" fill="none" xmlns="http://www.w3.org/2000/svg">
<path d="M21.3313 16.5603H19.8949V10.0803L20.105 10.2909C20.24 10.426 20.423 10.5018 20.6138 10.5016C20.8045 10.5015 20.9874 10.4253 21.1221 10.29C21.2569 10.1546 21.3325 9.97118 21.3323 9.77995C21.3322 9.58871 21.2562 9.40538 21.1212 9.27028L12.2922 0.421435C12.0229 0.151585 11.6577 0 11.2769 0C10.8961 0 10.5309 0.151585 10.2616 0.421435L1.43255 9.27028C1.29791 9.40538 1.22232 9.58857 1.2224 9.77955C1.22249 9.97053 1.29824 10.1537 1.433 10.2886C1.56776 10.4236 1.75048 10.4994 1.94097 10.4993C2.13147 10.4992 2.31412 10.4233 2.44876 10.2882L2.65883 10.0803V16.5603H1.22249C1.03202 16.5603 0.849345 16.6362 0.714662 16.7712C0.579979 16.9062 0.504314 17.0894 0.504314 17.2803C0.504314 17.4713 0.579979 17.6544 0.714662 17.7894C0.849345 17.9245 1.03202 18.0003 1.22249 18.0003H21.3313C21.5218 18.0003 21.7044 17.9245 21.8391 17.7894C21.9738 17.6544 22.0495 17.4713 22.0495 17.2803C22.0495 17.0894 21.9738 16.9062 21.8391 16.7712C21.7044 16.6362 21.5218 16.5603 21.3313 16.5603ZM13.4314 16.5603H9.12237V12.2403C9.12237 12.1448 9.1602 12.0532 9.22755 11.9857C9.29489 11.9182 9.38622 11.8803 9.48146 11.8803H13.0723C13.1676 11.8803 13.2589 11.9182 13.3262 11.9857C13.3936 12.0532 13.4314 12.1448 13.4314 12.2403V16.5603Z" fill="#3C6EAB"/>
</svg>
