<svg width="23" height="18" viewBox="0 0 23 18" fill="none" xmlns="http://www.w3.org/2000/svg">
<path d="M21.7837 16.5H21.0356V5.25C21.0356 5.05109 20.9568 4.86032 20.8165 4.71967C20.6762 4.57902 20.4859 4.5 20.2875 4.5H14.3028C14.1044 4.5 13.9141 4.57902 13.7738 4.71967C13.6335 4.86032 13.5547 5.05109 13.5547 5.25V9H9.06615V0.75C9.06615 0.551088 8.98733 0.360322 8.84704 0.21967C8.70674 0.0790178 8.51646 0 8.31806 0H2.33332C2.13492 0 1.94464 0.0790178 1.80434 0.21967C1.66405 0.360322 1.58523 0.551088 1.58523 0.75V16.5H0.837142C0.638736 16.5 0.448456 16.579 0.308161 16.7197C0.167867 16.8603 0.0890503 17.0511 0.0890503 17.25C0.0890503 17.4489 0.167867 17.6397 0.308161 17.7803C0.448456 17.921 0.638736 18 0.837142 18H21.7837C21.9821 18 22.1724 17.921 22.3127 17.7803C22.453 17.6397 22.5318 17.4489 22.5318 17.25C22.5318 17.0511 22.453 16.8603 22.3127 16.7197C22.1724 16.579 21.9821 16.5 21.7837 16.5ZM6.07378 14.25C6.07378 14.4489 5.99497 14.6397 5.85467 14.7803C5.71438 14.921 5.5241 15 5.32569 15C5.12729 15 4.93701 14.921 4.79671 14.7803C4.65642 14.6397 4.5776 14.4489 4.5776 14.25V12.75C4.5776 12.5511 4.65642 12.3603 4.79671 12.2197C4.93701 12.079 5.12729 12 5.32569 12C5.5241 12 5.71438 12.079 5.85467 12.2197C5.99497 12.3603 6.07378 12.5511 6.07378 12.75V14.25ZM6.07378 9.75C6.07378 9.94891 5.99497 10.1397 5.85467 10.2803C5.71438 10.421 5.5241 10.5 5.32569 10.5C5.12729 10.5 4.93701 10.421 4.79671 10.2803C4.65642 10.1397 4.5776 9.94891 4.5776 9.75V8.25C4.5776 8.05109 4.65642 7.86032 4.79671 7.71967C4.93701 7.57902 5.12729 7.5 5.32569 7.5C5.5241 7.5 5.71438 7.57902 5.85467 7.71967C5.99497 7.86032 6.07378 8.05109 6.07378 8.25V9.75ZM6.07378 5.25C6.07378 5.44891 5.99497 5.63968 5.85467 5.78033C5.71438 5.92098 5.5241 6 5.32569 6C5.12729 6 4.93701 5.92098 4.79671 5.78033C4.65642 5.63968 4.5776 5.44891 4.5776 5.25V3.75C4.5776 3.55109 4.65642 3.36032 4.79671 3.21967C4.93701 3.07902 5.12729 3 5.32569 3C5.5241 3 5.71438 3.07902 5.85467 3.21967C5.99497 3.36032 6.07378 3.55109 6.07378 3.75V5.25ZM12.0585 14.25C12.0585 14.4489 11.9797 14.6397 11.8394 14.7803C11.6991 14.921 11.5088 15 11.3104 15C11.112 15 10.9217 14.921 10.7814 14.7803C10.6411 14.6397 10.5623 14.4489 10.5623 14.25V12.75C10.5623 12.5511 10.6411 12.3603 10.7814 12.2197C10.9217 12.079 11.112 12 11.3104 12C11.5088 12 11.6991 12.079 11.8394 12.2197C11.9797 12.3603 12.0585 12.5511 12.0585 12.75V14.25ZM18.0432 14.25C18.0432 14.4489 17.9644 14.6397 17.8241 14.7803C17.6838 14.921 17.4936 15 17.2952 15C17.0968 15 16.9065 14.921 16.7662 14.7803C16.6259 14.6397 16.5471 14.4489 16.5471 14.25V12.75C16.5471 12.5511 16.6259 12.3603 16.7662 12.2197C16.9065 12.079 17.0968 12 17.2952 12C17.4936 12 17.6838 12.079 17.8241 12.2197C17.9644 12.3603 18.0432 12.5511 18.0432 12.75V14.25ZM18.0432 9.75C18.0432 9.94891 17.9644 10.1397 17.8241 10.2803C17.6838 10.421 17.4936 10.5 17.2952 10.5C17.0968 10.5 16.9065 10.421 16.7662 10.2803C16.6259 10.1397 16.5471 9.94891 16.5471 9.75V8.25C16.5471 8.05109 16.6259 7.86032 16.7662 7.71967C16.9065 7.57902 17.0968 7.5 17.2952 7.5C17.4936 7.5 17.6838 7.57902 17.8241 7.71967C17.9644 7.86032 18.0432 8.05109 18.0432 8.25V9.75Z" fill="#CBCBCB"/>
</svg>
