<svg width="23" height="18" viewBox="0 0 23 18" fill="none" xmlns="http://www.w3.org/2000/svg">
<path d="M21.7835 16.5H21.0354V5.25C21.0354 5.05109 20.9566 4.86032 20.8163 4.71967C20.676 4.57902 20.4857 4.5 20.2873 4.5H14.3026C14.1042 4.5 13.9139 4.57902 13.7736 4.71967C13.6333 4.86032 13.5545 5.05109 13.5545 5.25V9H9.06597V0.75C9.06597 0.551088 8.98715 0.360322 8.84686 0.21967C8.70656 0.0790178 8.51628 0 8.31787 0H2.33314C2.13474 0 1.94446 0.0790178 1.80416 0.21967C1.66387 0.360322 1.58505 0.551088 1.58505 0.75V16.5H0.836959C0.638553 16.5 0.448272 16.579 0.307978 16.7197C0.167684 16.8603 0.0888672 17.0511 0.0888672 17.25C0.0888672 17.4489 0.167684 17.6397 0.307978 17.7803C0.448272 17.921 0.638553 18 0.836959 18H21.7835C21.9819 18 22.1722 17.921 22.3125 17.7803C22.4528 17.6397 22.5316 17.4489 22.5316 17.25C22.5316 17.0511 22.4528 16.8603 22.3125 16.7197C22.1722 16.579 21.9819 16.5 21.7835 16.5ZM6.0736 14.25C6.0736 14.4489 5.99478 14.6397 5.85449 14.7803C5.71419 14.921 5.52391 15 5.32551 15C5.1271 15 4.93682 14.921 4.79653 14.7803C4.65623 14.6397 4.57742 14.4489 4.57742 14.25V12.75C4.57742 12.5511 4.65623 12.3603 4.79653 12.2197C4.93682 12.079 5.1271 12 5.32551 12C5.52391 12 5.71419 12.079 5.85449 12.2197C5.99478 12.3603 6.0736 12.5511 6.0736 12.75V14.25ZM6.0736 9.75C6.0736 9.94891 5.99478 10.1397 5.85449 10.2803C5.71419 10.421 5.52391 10.5 5.32551 10.5C5.1271 10.5 4.93682 10.421 4.79653 10.2803C4.65623 10.1397 4.57742 9.94891 4.57742 9.75V8.25C4.57742 8.05109 4.65623 7.86032 4.79653 7.71967C4.93682 7.57902 5.1271 7.5 5.32551 7.5C5.52391 7.5 5.71419 7.57902 5.85449 7.71967C5.99478 7.86032 6.0736 8.05109 6.0736 8.25V9.75ZM6.0736 5.25C6.0736 5.44891 5.99478 5.63968 5.85449 5.78033C5.71419 5.92098 5.52391 6 5.32551 6C5.1271 6 4.93682 5.92098 4.79653 5.78033C4.65623 5.63968 4.57742 5.44891 4.57742 5.25V3.75C4.57742 3.55109 4.65623 3.36032 4.79653 3.21967C4.93682 3.07902 5.1271 3 5.32551 3C5.52391 3 5.71419 3.07902 5.85449 3.21967C5.99478 3.36032 6.0736 3.55109 6.0736 3.75V5.25ZM12.0583 14.25C12.0583 14.4489 11.9795 14.6397 11.8392 14.7803C11.6989 14.921 11.5086 15 11.3102 15C11.1118 15 10.9216 14.921 10.7813 14.7803C10.641 14.6397 10.5621 14.4489 10.5621 14.25V12.75C10.5621 12.5511 10.641 12.3603 10.7813 12.2197C10.9216 12.079 11.1118 12 11.3102 12C11.5086 12 11.6989 12.079 11.8392 12.2197C11.9795 12.3603 12.0583 12.5511 12.0583 12.75V14.25ZM18.0431 14.25C18.0431 14.4489 17.9642 14.6397 17.824 14.7803C17.6837 14.921 17.4934 15 17.295 15C17.0966 15 16.9063 14.921 16.766 14.7803C16.6257 14.6397 16.5469 14.4489 16.5469 14.25V12.75C16.5469 12.5511 16.6257 12.3603 16.766 12.2197C16.9063 12.079 17.0966 12 17.295 12C17.4934 12 17.6837 12.079 17.824 12.2197C17.9642 12.3603 18.0431 12.5511 18.0431 12.75V14.25ZM18.0431 9.75C18.0431 9.94891 17.9642 10.1397 17.824 10.2803C17.6837 10.421 17.4934 10.5 17.295 10.5C17.0966 10.5 16.9063 10.421 16.766 10.2803C16.6257 10.1397 16.5469 9.94891 16.5469 9.75V8.25C16.5469 8.05109 16.6257 7.86032 16.766 7.71967C16.9063 7.57902 17.0966 7.5 17.295 7.5C17.4934 7.5 17.6837 7.57902 17.824 7.71967C17.9642 7.86032 18.0431 8.05109 18.0431 8.25V9.75Z" fill="#3C6EAB"/>
</svg>
