<svg width="16" height="20" viewBox="0 0 16 20" fill="none" xmlns="http://www.w3.org/2000/svg">
<path d="M8.12203 0C6.04422 0.00236314 4.05219 0.830923 2.58295 2.3039C1.11372 3.77689 0.287269 5.774 0.284912 7.85711C0.284912 14.5803 7.40957 19.658 7.71325 19.8705C7.83305 19.9546 7.97577 19.9997 8.12203 19.9997C8.26829 19.9997 8.41101 19.9546 8.53081 19.8705C8.8345 19.658 15.9591 14.5803 15.9591 7.85711C15.9568 5.774 15.1303 3.77689 13.6611 2.3039C12.1919 0.830923 10.1998 0.00236314 8.12203 0ZM8.12203 4.99998C8.68568 4.99998 9.23667 5.16755 9.70533 5.48149C10.174 5.79544 10.5393 6.24166 10.755 6.76373C10.9707 7.28581 11.0271 7.86028 10.9171 8.41451C10.8072 8.96874 10.5357 9.47783 10.1372 9.87741C9.73863 10.277 9.23083 10.5491 8.67801 10.6593C8.12519 10.7696 7.55218 10.713 7.03144 10.4968C6.51069 10.2805 6.0656 9.9143 5.75246 9.44445C5.43931 8.9746 5.27217 8.4222 5.27217 7.85711C5.27217 7.09935 5.57242 6.37263 6.10687 5.83681C6.64133 5.301 7.3662 4.99998 8.12203 4.99998Z" fill="#3C6EAB"/>
</svg>
