<svg width="16" height="20" viewBox="0 0 16 20" fill="none" xmlns="http://www.w3.org/2000/svg">
<path d="M8.12212 0C6.04431 0.00236314 4.05228 0.830923 2.58305 2.3039C1.11381 3.77689 0.287361 5.774 0.285004 7.85711C0.285004 14.5803 7.40966 19.658 7.71335 19.8705C7.83314 19.9546 7.97586 19.9997 8.12212 19.9997C8.26839 19.9997 8.41111 19.9546 8.5309 19.8705C8.83459 19.658 15.9592 14.5803 15.9592 7.85711C15.9569 5.774 15.1304 3.77689 13.6612 2.3039C12.192 0.830923 10.1999 0.00236314 8.12212 0ZM8.12212 4.99998C8.68577 4.99998 9.23676 5.16755 9.70542 5.48149C10.1741 5.79544 10.5394 6.24166 10.7551 6.76373C10.9708 7.28581 11.0272 7.86028 10.9172 8.41451C10.8073 8.96874 10.5358 9.47783 10.1373 9.87741C9.73872 10.277 9.23092 10.5491 8.6781 10.6593C8.12528 10.7696 7.55227 10.713 7.03153 10.4968C6.51078 10.2805 6.0657 9.9143 5.75255 9.44445C5.4394 8.9746 5.27226 8.4222 5.27226 7.85711C5.27226 7.09935 5.57251 6.37263 6.10697 5.83681C6.64142 5.301 7.36629 4.99998 8.12212 4.99998Z" fill="#CBCBCB"/>
</svg>
