<svg width="22" height="15" viewBox="0 0 22 15" fill="none" xmlns="http://www.w3.org/2000/svg">
<path d="M19.9619 0H5.00002C4.60321 0 4.22265 0.158035 3.94206 0.43934C3.66147 0.720644 3.50384 1.10218 3.50384 1.5V12.75C3.50384 12.9489 3.42502 13.1397 3.28473 13.2803C3.14444 13.421 2.95416 13.5 2.75575 13.5C2.55734 13.5 2.36706 13.421 2.22677 13.2803C2.08647 13.1397 2.00766 12.9489 2.00766 12.75V3.75C2.00766 3.55109 1.92884 3.36032 1.78855 3.21967C1.64825 3.07902 1.45797 3 1.25957 3C1.06116 3 0.87088 3.07902 0.730586 3.21967C0.590291 3.36032 0.511475 3.55109 0.511475 3.75V12.7603C0.514195 13.3553 0.751844 13.9249 1.17243 14.3446C1.59302 14.7644 2.16231 15 2.75575 15H19.2138C19.809 15 20.3798 14.7629 20.8007 14.341C21.2216 13.919 21.458 13.3467 21.458 12.75V1.5C21.458 1.10218 21.3004 0.720644 21.0198 0.43934C20.7392 0.158035 20.3587 0 19.9619 0ZM16.2214 9.75H8.74048C8.54208 9.75 8.3518 9.67098 8.2115 9.53033C8.07121 9.38968 7.99239 9.19891 7.99239 9C7.99239 8.80109 8.07121 8.61032 8.2115 8.46967C8.3518 8.32902 8.54208 8.25 8.74048 8.25H16.2214C16.4198 8.25 16.6101 8.32902 16.7504 8.46967C16.8907 8.61032 16.9695 8.80109 16.9695 9C16.9695 9.19891 16.8907 9.38968 16.7504 9.53033C16.6101 9.67098 16.4198 9.75 16.2214 9.75ZM16.2214 6.75H8.74048C8.54208 6.75 8.3518 6.67098 8.2115 6.53033C8.07121 6.38968 7.99239 6.19891 7.99239 6C7.99239 5.80109 8.07121 5.61032 8.2115 5.46967C8.3518 5.32902 8.54208 5.25 8.74048 5.25H16.2214C16.4198 5.25 16.6101 5.32902 16.7504 5.46967C16.8907 5.61032 16.9695 5.80109 16.9695 6C16.9695 6.19891 16.8907 6.38968 16.7504 6.53033C16.6101 6.67098 16.4198 6.75 16.2214 6.75Z" fill="#3C6EAB"/>
</svg>
