<svg width="22" height="15" viewBox="0 0 22 15" fill="none" xmlns="http://www.w3.org/2000/svg">
<path d="M19.9618 0H4.99999C4.60318 0 4.22262 0.158035 3.94203 0.43934C3.66144 0.720644 3.50381 1.10218 3.50381 1.5V12.75C3.50381 12.9489 3.42499 13.1397 3.2847 13.2803C3.14441 13.421 2.95413 13.5 2.75572 13.5C2.55731 13.5 2.36703 13.421 2.22674 13.2803C2.08644 13.1397 2.00763 12.9489 2.00763 12.75V3.75C2.00763 3.55109 1.92881 3.36032 1.78852 3.21967C1.64822 3.07902 1.45794 3 1.25954 3C1.06113 3 0.870849 3.07902 0.730555 3.21967C0.590261 3.36032 0.511444 3.55109 0.511444 3.75V12.7603C0.514164 13.3553 0.751814 13.9249 1.1724 14.3446C1.59299 14.7644 2.16228 15 2.75572 15H19.2137C19.809 15 20.3798 14.7629 20.8007 14.341C21.2216 13.919 21.458 13.3467 21.458 12.75V1.5C21.458 1.10218 21.3004 0.720644 21.0198 0.43934C20.7392 0.158035 20.3586 0 19.9618 0ZM16.2214 9.75H8.74045C8.54205 9.75 8.35177 9.67098 8.21147 9.53033C8.07118 9.38968 7.99236 9.19891 7.99236 9C7.99236 8.80109 8.07118 8.61032 8.21147 8.46967C8.35177 8.32902 8.54205 8.25 8.74045 8.25H16.2214C16.4198 8.25 16.6101 8.32902 16.7503 8.46967C16.8906 8.61032 16.9695 8.80109 16.9695 9C16.9695 9.19891 16.8906 9.38968 16.7503 9.53033C16.6101 9.67098 16.4198 9.75 16.2214 9.75ZM16.2214 6.75H8.74045C8.54205 6.75 8.35177 6.67098 8.21147 6.53033C8.07118 6.38968 7.99236 6.19891 7.99236 6C7.99236 5.80109 8.07118 5.61032 8.21147 5.46967C8.35177 5.32902 8.54205 5.25 8.74045 5.25H16.2214C16.4198 5.25 16.6101 5.32902 16.7503 5.46967C16.8906 5.61032 16.9695 5.80109 16.9695 6C16.9695 6.19891 16.8906 6.38968 16.7503 6.53033C16.6101 6.67098 16.4198 6.75 16.2214 6.75Z" fill="#CBCBCB"/>
</svg>
